# xmcd
#
# Track frame offsets: 
#        150
#        8041
#        25219
#        36679
#        57529
#        74060
#        95899
#        114377
#        134341
#        149975
#        169029
#        190554
#
# Disc length: 2610 seconds
#
# Revision: 0
# Processed by: cddbd v1.5.2PL0 Copyright (c) Steve Scherf et al.
# Submitted via: ExactAudioCopy v1.2
#
DISCID=bb0a300c
DTITLE=Bruce 'Mississippi' Johnson - The Deal Baby
DYEAR=2017
DGENRE=Blues
TTITLE0=Let It Rain (Intro)
TTITLE1=That's The Deal Baby
TTITLE2=I Can't Shake The Blues
TTITLE3=Years, Tears
TTITLE4=You Been Working Mojo
TTITLE5=I'm Gonna Bring Your Game Down
TTITLE6=Freak On Or Die
TTITLE7=No Good
TTITLE8=I'll Bleed
TTITLE9=The Neighbour Next Door
TTITLE10=See You Tomorrow
TTITLE11=Let It Rain (Outro)
EXTD=
EXTT0=
EXTT1=
EXTT2=
EXTT3=
EXTT4=
EXTT5=
EXTT6=
EXTT7=
EXTT8=
EXTT9=
EXTT10=
EXTT11=
PLAYORDER=
